<svg width="14" height="14" viewBox="0 0 14 14" fill="none" xmlns="http://www.w3.org/2000/svg">
<path d="M7.33335 11.9587C9.96421 11.6307 12 9.3864 12 6.66667C12 3.72115 9.61221 1.33333 6.66668 1.33333C3.72115 1.33333 1.33333 3.72115 1.33333 6.66667C1.33333 9.3864 3.36913 11.6307 6.00001 11.9587V8H4.66667V6.66667H6.00001V5.56387C6.00001 4.67237 6.09281 4.34908 6.26715 4.02315C6.44141 3.69723 6.69721 3.44144 7.02315 3.26713C7.27828 3.13069 7.59475 3.04835 8.14781 3.01303C8.36728 2.99901 8.65141 3.01689 9.00001 3.06667V4.33333H8.66668C8.05515 4.33333 7.80281 4.36221 7.65195 4.44289C7.55841 4.49293 7.49295 4.55839 7.44288 4.65195C7.36221 4.80279 7.33335 4.95235 7.33335 5.56387V6.66667H9.00001L8.66668 8H7.33335V11.9587ZM6.66668 13.3333C2.98477 13.3333 0 10.3485 0 6.66667C0 2.98477 2.98477 0 6.66668 0C10.3485 0 13.3333 2.98477 13.3333 6.66667C13.3333 10.3485 10.3485 13.3333 6.66668 13.3333Z" fill="white"/>
</svg>
