<svg width="50" height="50" viewBox="0 0 50 50" fill="none" xmlns="http://www.w3.org/2000/svg">
<g clip-path="url(#clip0_10_3880)">
<path d="M30.8169 35.5479C30.8169 36.25 30.9356 36.8354 30.9356 37.4229C30.9356 41.1729 28.3565 43.75 24.7231 43.75C20.9731 43.75 18.5148 41.1708 18.5148 37.0708V35.5479C16.5211 36.9542 15.2315 37.4229 13.4731 37.4229C10.3106 37.4229 7.37939 34.375 7.37939 30.9771C7.37939 28.5167 9.13773 26.4062 11.7169 25.2354L12.3002 25C9.02106 23.3604 7.37939 21.4833 7.37939 18.9062C7.37939 15.3917 10.0752 12.4604 13.4731 12.4604C14.8794 12.4604 16.6398 13.1646 17.9273 14.1021L18.5127 14.3354C18.5127 13.6333 18.3961 13.0458 18.3961 12.5771C18.3961 8.82708 20.9731 6.25 24.6044 6.25C28.3544 6.25 30.8148 8.82708 30.8148 12.9292V13.75L30.6981 14.3354C32.6898 12.9292 33.9794 12.4604 35.7377 12.4604C38.9023 12.4604 41.8315 15.5083 41.8315 18.9062C41.8315 21.3667 40.0731 23.4771 37.4961 24.6479L36.9086 25C40.1898 26.6396 41.8315 28.5167 41.8315 31.0937C41.8315 34.6104 39.1356 37.5396 35.7377 37.5396C34.3315 37.5396 32.4565 36.9542 31.2836 35.8979L30.8148 35.5458L30.8169 35.5479Z" stroke="#CD333A" stroke-width="2" stroke-linecap="round" stroke-linejoin="round"/>
</g>
<defs>
<clipPath id="clip0_10_3880">
<rect width="50" height="50" fill="white"/>
</clipPath>
</defs>
</svg>
