<svg width="14" height="14" viewBox="0 0 14 14" fill="none" xmlns="http://www.w3.org/2000/svg">
<path d="M6.66668 4.66667C5.56175 4.66667 4.66667 5.56207 4.66667 6.66667C4.66667 7.77153 5.56208 8.66667 6.66668 8.66667C7.77155 8.66667 8.66668 7.77127 8.66668 6.66667C8.66668 5.5618 7.77128 4.66667 6.66668 4.66667ZM6.66668 3.33333C8.50695 3.33333 10 4.82473 10 6.66667C10 8.507 8.50861 10 6.66668 10C4.82635 10 3.33333 8.5086 3.33333 6.66667C3.33333 4.82635 4.82473 3.33333 6.66668 3.33333ZM11 3.1661C11 3.62617 10.6261 3.99945 10.1667 3.99945C9.70661 3.99945 9.33335 3.6256 9.33335 3.1661C9.33335 2.7066 9.70715 2.33333 10.1667 2.33333C10.6255 2.33275 11 2.7066 11 3.1661ZM6.66668 1.33333C5.01701 1.33333 4.74813 1.3377 3.98086 1.37187C3.45811 1.39641 3.1077 1.46671 2.78212 1.59311C2.49279 1.70533 2.28407 1.83932 2.06169 2.0617C1.83846 2.28493 1.70471 2.49309 1.59295 2.78255C1.46625 3.10888 1.39597 3.45874 1.37187 3.98077C1.33737 4.7168 1.33333 4.97403 1.33333 6.66667C1.33333 8.31633 1.3377 8.5852 1.37186 9.3524C1.39641 9.87493 1.46681 10.2259 1.59291 10.5507C1.70541 10.8404 1.83968 11.0496 2.06099 11.2709C2.2851 11.4947 2.49387 11.6289 2.78059 11.7396C3.11014 11.867 3.46033 11.9374 3.98076 11.9615C4.7168 11.9959 4.97403 12 6.66668 12C8.31635 12 8.58521 11.9956 9.35241 11.9615C9.87381 11.937 10.225 11.8664 10.5507 11.7404C10.8396 11.6282 11.0495 11.4935 11.2709 11.2723C11.4951 11.0479 11.629 10.8396 11.7398 10.5522C11.8669 10.2239 11.9374 9.8732 11.9615 9.3526C11.9959 8.61653 12 8.35927 12 6.66667C12 5.01701 11.9956 4.74814 11.9615 3.98091C11.9369 3.45937 11.8663 3.10766 11.7402 2.78212C11.6283 2.49359 11.4938 2.28423 11.2716 2.0617C11.048 1.8381 10.8404 1.70462 10.5507 1.59295C10.2247 1.46636 9.87428 1.39597 9.35255 1.37187C8.61655 1.33737 8.35928 1.33333 6.66668 1.33333ZM6.66668 0C8.47775 0 8.70388 0.00666663 9.41501 0.04C10.1244 0.07278 10.6083 0.185 11.0333 0.35C11.4727 0.519447 11.8439 0.748333 12.2144 1.11889C12.5844 1.48945 12.8133 1.86167 12.9833 2.3C13.1477 2.72445 13.26 3.20889 13.2933 3.91833C13.325 4.62945 13.3333 4.85555 13.3333 6.66667C13.3333 8.4778 13.3267 8.70387 13.2933 9.415C13.2605 10.1245 13.1477 10.6083 12.9833 11.0333C12.8139 11.4728 12.5844 11.8439 12.2144 12.2145C11.8439 12.5845 11.4711 12.8133 11.0333 12.9833C10.6083 13.1478 10.1244 13.26 9.41501 13.2933C8.70388 13.325 8.47775 13.3333 6.66668 13.3333C4.85555 13.3333 4.62944 13.3267 3.91833 13.2933C3.20889 13.2605 2.72555 13.1478 2.3 12.9833C1.86111 12.8139 1.48944 12.5845 1.11889 12.2145C0.748333 11.8439 0.52 11.4711 0.35 11.0333C0.185 10.6083 0.0733335 10.1245 0.0400001 9.415C0.00833345 8.70387 0 8.4778 0 6.66667C0 4.85555 0.00666679 4.62945 0.0400001 3.91833C0.0727735 3.20833 0.185 2.725 0.35 2.3C0.51944 1.86111 0.748333 1.48945 1.11889 1.11889C1.48944 0.748333 1.86167 0.52 2.3 0.35C2.725 0.185 3.20833 0.0733333 3.91833 0.04C4.62944 0.00833329 4.85555 0 6.66668 0Z" fill="white"/>
</svg>
