<svg width="50" height="50" viewBox="0 0 50 50" fill="none" xmlns="http://www.w3.org/2000/svg">
<g clip-path="url(#clip0_10_3860)">
<path d="M31.25 8.3335L43.75 12.5002V22.9168H37.5V39.5835C37.5 40.136 37.2805 40.6659 36.8898 41.0566C36.4991 41.4473 35.9692 41.6668 35.4167 41.6668H14.5833C14.0308 41.6668 13.5009 41.4473 13.1102 41.0566C12.7195 40.6659 12.5 40.136 12.5 39.5835V22.9168H6.25V12.5002L18.75 8.3335C18.75 9.9911 19.4085 11.5808 20.5806 12.7529C21.7527 13.925 23.3424 14.5835 25 14.5835C26.6576 14.5835 28.2473 13.925 29.4194 12.7529C30.5915 11.5808 31.25 9.9911 31.25 8.3335Z" stroke="#CD333A" stroke-width="2" stroke-linecap="round" stroke-linejoin="round"/>
</g>
<defs>
<clipPath id="clip0_10_3860">
<rect width="50" height="50" fill="white"/>
</clipPath>
</defs>
</svg>
