<svg width="14" height="11" viewBox="0 0 14 11" fill="none" xmlns="http://www.w3.org/2000/svg">
<path d="M11.7373 1.99655C11.6865 1.79797 11.5428 1.64814 11.3783 1.60192C11.0859 1.52041 9.66668 1.33333 6.66668 1.33333C3.66667 1.33333 2.24769 1.52049 1.95418 1.60215C1.79119 1.64749 1.64755 1.79729 1.59608 1.99655C1.52355 2.27949 1.33333 3.46397 1.33333 5.33333C1.33333 7.20267 1.52355 8.3872 1.59628 8.67093C1.64685 8.86873 1.79052 9.01853 1.95435 9.06453C2.24769 9.1462 3.66667 9.33333 6.66668 9.33333C9.66668 9.33333 11.0859 9.14627 11.3791 9.06453C11.5421 9.0192 11.6858 8.8694 11.7373 8.67013C11.8098 8.3872 12 7.2 12 5.33333C12 3.46667 11.8098 2.27949 11.7373 1.99655ZM13.0288 1.66545C13.3333 2.85333 13.3333 5.33333 13.3333 5.33333C13.3333 5.33333 13.3333 7.81333 13.0288 9.0012C12.8591 9.6582 12.364 10.1745 11.7364 10.3491C10.5974 10.6667 6.66668 10.6667 6.66668 10.6667C6.66668 10.6667 2.73826 10.6667 1.59693 10.3491C0.966987 10.1721 0.471873 9.65573 0.304507 9.0012C1.19209e-07 7.81333 0 5.33333 0 5.33333C0 5.33333 1.19209e-07 2.85333 0.304507 1.66545C0.474193 1.00849 0.969313 0.49212 1.59693 0.317573C2.73826 -9.93411e-08 6.66668 0 6.66668 0C6.66668 0 10.5974 -9.93411e-08 11.7364 0.317573C12.3663 0.494547 12.8615 1.01091 13.0288 1.66545ZM5.33335 7.66667V3L9.33335 5.33333L5.33335 7.66667Z" fill="white"/>
</svg>
